<?xml version="1.0" encoding="UTF-8" standalone="no"?>
<!-- Generator: Adobe Illustrator 19.0.0, SVG Export Plug-In . SVG Version: 6.00 Build 0)  -->

<svg
   xmlns:dc="http://purl.org/dc/elements/1.1/"
   xmlns:cc="http://creativecommons.org/ns#"
   xmlns:rdf="http://www.w3.org/1999/02/22-rdf-syntax-ns#"
   xmlns:svg="http://www.w3.org/2000/svg"
   xmlns="http://www.w3.org/2000/svg"
   xmlns:sodipodi="http://sodipodi.sourceforge.net/DTD/sodipodi-0.dtd"
   xmlns:inkscape="http://www.inkscape.org/namespaces/inkscape"
   version="1.1"
   id="Layer_1"
   x="0px"
   y="0px"
   viewBox="0 0 297 297"
   style="enable-background:new 0 0 297 297;"
   xml:space="preserve"
   sodipodi:docname="teeth.svg"
   inkscape:version="0.92.3 (unknown)"><metadata
   id="metadata49"><rdf:RDF><cc:Work
       rdf:about=""><dc:format>image/svg+xml</dc:format><dc:type
         rdf:resource="http://purl.org/dc/dcmitype/StillImage" /></cc:Work></rdf:RDF></metadata><defs
   id="defs47" /><sodipodi:namedview
   pagecolor="#ffffff"
   bordercolor="#666666"
   borderopacity="1"
   objecttolerance="10"
   gridtolerance="10"
   guidetolerance="10"
   inkscape:pageopacity="0"
   inkscape:pageshadow="2"
   inkscape:window-width="1366"
   inkscape:window-height="714"
   id="namedview45"
   showgrid="false"
   inkscape:zoom="0.79461279"
   inkscape:cx="122.07203"
   inkscape:cy="148.5"
   inkscape:window-x="0"
   inkscape:window-y="0"
   inkscape:window-maximized="1"
   inkscape:current-layer="g12" />
<g
   id="g12">
	<g
   id="g4">
		<circle
   style="fill:#2196f3;fill-opacity:1"
   cx="148.5"
   cy="148.5"
   r="148.5"
   id="circle2" />
	</g>
	<path
   style="fill:#0074f3;fill-opacity:1"
   d="M296.729,139.625l-73.396-73.396l-70.041,102.695l-22.448,4.754l-21.805,45.806l6.088,5.396   l-14.769,21.655l50.49,50.435C231.778,295.714,297,229.729,297,148.5C297,145.52,296.902,142.563,296.729,139.625z"
   id="path6" />
	<path
   style="fill:#FFFFFF;"
   d="M148.5,182.929c21.75,0,26.245,37.492,30.24,59.816c1.125,6.285,14.643,8.191,18.52,3.118   c48.336-63.25,43.98-132.524,39.929-151.622c-4.479-21.116-17.017-38.009-38.009-38.009c-20.99,0-35.839,7.135-50.679,21.976   c-14.84-14.841-29.689-21.976-50.679-21.976c-20.992,0-33.53,16.893-38.009,38.009c-4.051,19.098-8.408,88.372,39.929,151.622   c3.877,5.073,17.395,3.168,18.52-3.118C122.255,220.421,126.75,182.929,148.5,182.929z"
   id="path8" />
	<path
   style="fill:#EDECEB;"
   d="M237.188,94.241c-4.479-21.116-17.017-38.009-38.009-38.009c-20.99,0-35.839,7.135-50.679,21.976   c-0.111-0.111-0.222-0.212-0.333-0.322v105.062c0.113-0.002,0.219-0.018,0.333-0.018c21.75,0,26.245,37.492,30.24,59.816   c1.125,6.285,14.643,8.191,18.52,3.117C245.596,182.613,241.24,113.339,237.188,94.241z"
   id="path10" />
</g>
<g
   id="g14">
</g>
<g
   id="g16">
</g>
<g
   id="g18">
</g>
<g
   id="g20">
</g>
<g
   id="g22">
</g>
<g
   id="g24">
</g>
<g
   id="g26">
</g>
<g
   id="g28">
</g>
<g
   id="g30">
</g>
<g
   id="g32">
</g>
<g
   id="g34">
</g>
<g
   id="g36">
</g>
<g
   id="g38">
</g>
<g
   id="g40">
</g>
<g
   id="g42">
</g>
</svg>